PathFileType	4	(X/Y/Z)	c:/Users/goper/Files/vsCode/490R/osim_files/C12/C12_SSWS_05.trc
DataRate	CameraRate	NumFrames	NumMarkers	Units                	OrigDataRate	OrigDataStartFrame	OrigNumFrames
120.00	120.00	6	36	mm	120.0	919	1225
                Frame#	Time	LPSIS			LASIS			LTH1			LTH2			LTH3			LTH4			LLFE			LMFE			LSH1			LSH2			LSH3			LSH4			LLMAL			LMMAL			LCAL			LMTP5			LTOE			LMTP1			RPSIS			RASIS			RTH1			RTH2			RTH3			RTH4			RLFE			RMFE			RSH1			RSH2			RSH3			RSH4			RLMAL			RMMAL			RCAL			RMTP1			RTOE			RMTP5		
		X1	Y1	Z1	X2	Y2	Z2	X3	Y3	Z3	X4	Y4	Z4	X5	Y5	Z5	X6	Y6	Z6	X7	Y7	Z7	X8	Y8	Z8	X9	Y9	Z9	X10	Y10	Z10	X11	Y11	Z11	X12	Y12	Z12	X13	Y13	Z13	X14	Y14	Z14	X15	Y15	Z15	X16	Y16	Z16	X17	Y17	Z17	X18	Y18	Z18	X19	Y19	Z19	X20	Y20	Z20	X21	Y21	Z21	X22	Y22	Z22	X23	Y23	Z23	X24	Y24	Z24	X25	Y25	Z25	X26	Y26	Z26	X27	Y27	Z27	X28	Y28	Z28	X29	Y29	Z29	X30	Y30	Z30	X31	Y31	Z31	X32	Y32	Z32	X33	Y33	Z33	X34	Y34	Z34	X35	Y35	Z35	X36	Y36	Z36

919	7.65000	-3251.19580	1050.72217	368.63950	-3431.86548	1014.06012	421.24588	0.00000	0.00000	0.00000	-3442.73145	695.32306	467.58401	-3483.63452	762.04474	472.60822	-3496.89355	720.21143	468.43869	-3543.31982	548.09015	417.95895	-3526.75244	540.90594	294.45929	-3501.99268	442.60040	444.79529	-3510.83423	395.28586	450.42648	-3561.39380	446.01971	429.11703	-3560.16284	398.62177	435.11523	-3543.03369	105.23075	404.34158	-3548.25952	111.74591	324.49680	-3475.14062	78.93522	371.32468	-3678.39526	53.22607	424.25934	-3721.25415	88.70486	353.48547	-3689.92236	54.57560	315.12381	0.00000	0.00000	0.00000	-3426.90625	1008.84021	167.90543	-3282.81543	732.26337	114.68311	-3282.81201	686.74402	123.14837	-3347.18726	722.34119	116.14222	-3334.23462	676.06177	120.79287	-3248.02417	513.26483	142.29189	-3261.51807	498.99313	273.00449	-3133.51611	483.80200	128.94638	-3104.45679	452.35239	121.64481	-3178.25122	436.84842	122.07027	-3140.46558	413.71881	117.82191	-2918.12891	227.81773	159.05908	-2942.14917	219.31561	238.28870	-2853.88721	268.69464	203.65445	-2937.85425	79.52444	254.83755	-2973.04297	69.59657	224.94237	-2927.47778	62.33735	148.77919
920	7.65833	-3262.27612	1052.69434	368.59821	-3442.96143	1016.17310	423.35556	0.00000	0.00000	0.00000	-3452.18384	696.93103	469.39096	-3493.42871	763.06885	474.13043	-3506.60571	721.43750	470.31635	-3550.60693	548.22589	419.77072	-3534.94727	541.37653	296.02750	-3508.47363	443.49414	445.92413	-3516.45459	396.04993	451.35324	-3567.87378	445.86591	430.17282	-3565.65820	398.51752	435.93011	-3543.40186	105.33833	404.30045	-3548.65625	111.89954	324.60651	-3475.36548	79.34710	371.40091	-3678.47510	52.84540	424.55017	-3721.44360	88.48672	353.63995	-3690.14014	54.39951	315.08105	0.00000	0.00000	0.00000	-3438.47510	1010.51318	170.01146	-3299.54541	731.31580	114.61817	-3300.44067	685.87262	122.89758	-3364.27808	722.79730	116.34507	-3352.26709	676.24493	120.77164	-3268.49585	511.51782	141.56564	-3284.36182	496.00363	272.09702	-3154.23511	484.91040	128.87083	-3124.91821	454.12170	121.68524	0.00000	0.00000	0.00000	-3159.71094	414.79684	116.97511	-2933.97705	234.98448	158.96234	-2957.63843	225.33264	238.20819	-2872.66675	280.21863	202.40024	-2944.57178	85.38409	254.07564	-2980.62988	69.66051	224.43974	-2934.28198	68.83674	148.33812
921	7.66667	-3272.77075	1054.53137	368.63477	-3453.96704	1018.08661	425.44623	0.00000	0.00000	0.00000	-3460.90796	698.26288	471.00073	-3502.50952	763.66467	475.54614	-3515.49341	722.25647	472.04312	-3556.90918	548.06360	421.56104	-3542.30640	541.65570	297.32333	-3513.85425	444.10526	446.71271	-3521.03247	396.47659	452.10782	-3573.30176	445.62726	431.21658	-3570.44263	398.34952	436.92807	-3543.75635	105.41887	404.26553	-3548.93262	112.00182	324.82022	-3475.53687	79.69409	371.47443	-3678.67188	52.45364	424.73660	-3721.90942	88.03570	353.87296	-3690.33203	54.14862	314.93768	0.00000	0.00000	0.00000	-3449.74658	1012.04901	171.92145	-3316.07520	730.51514	114.51057	0.00000	0.00000	0.00000	-3380.92993	723.40338	116.22662	-3370.10913	676.62494	120.56921	-3289.12891	509.97034	140.76476	-3307.33643	493.62360	271.29303	-3175.50146	485.95340	128.49084	-3145.73145	455.68494	121.39598	0.00000	0.00000	0.00000	-3179.63647	415.83276	116.03992	-2950.24658	241.85883	158.90636	-2973.45776	231.08504	238.16338	-2893.89697	291.08090	201.69028	-2952.41211	91.27394	253.42747	-2988.34473	69.23691	223.46408	-2942.21216	75.57483	147.83319
922	7.67500	-3283.35107	1055.95837	368.86331	-3464.84375	1019.80554	427.43423	0.00000	0.00000	0.00000	-3468.72803	699.28271	472.31107	-3510.75000	763.62921	476.68027	-3523.77539	722.67816	473.60638	-3562.56543	547.79132	423.30707	-3549.15210	541.97278	298.51981	-3518.31885	444.51672	447.31580	-3524.89868	396.84540	452.61417	-3577.93433	445.31653	432.33707	-3574.45947	398.13028	438.03152	-3544.11597	105.47095	404.24033	-3549.44312	112.32128	325.40338	-3475.75220	79.99581	371.53833	-3678.79785	52.17736	424.86777	-3722.47705	87.09017	354.24017	-3690.56689	53.88894	314.88351	0.00000	0.00000	0.00000	-3460.97681	1013.56281	173.69104	-3332.23047	730.03522	114.46960	0.00000	0.00000	0.00000	-3397.30884	724.31030	115.92063	-3387.60718	677.38446	120.15360	-3309.99634	508.82336	140.02817	-3330.45337	492.17911	270.64279	-3197.42627	486.96133	128.00867	-3167.19141	457.30719	120.98103	0.00000	0.00000	0.00000	-3200.23120	416.86737	115.03738	-2968.35327	247.76277	158.88522	-2990.94092	236.46246	238.37941	-2915.57642	300.85541	201.44591	-2962.28296	97.43171	252.96400	-2996.43945	70.08689	222.96588	-2950.82690	81.81596	147.84756
923	7.68333	-3293.74292	1057.24573	369.23770	-3475.64844	1021.46075	429.36188	0.00000	0.00000	0.00000	-3477.10498	700.84259	473.67880	-3518.80273	763.71265	478.19250	-3531.91821	722.11151	475.47714	-3567.84229	547.42841	424.88431	-3555.38623	542.33044	299.58179	-3521.98413	444.71851	447.64197	-3527.84448	396.93185	452.87628	-3581.55151	445.44431	433.44330	-3577.67285	397.64789	439.05222	-3544.51855	105.58952	404.17426	-3549.71436	112.38516	325.56223	-3475.99146	80.24110	371.56335	-3679.00708	52.05740	424.99985	-3722.96387	86.40270	354.54581	-3690.75684	53.62194	314.83850	0.00000	0.00000	0.00000	-3471.77271	1015.05249	175.19647	-3347.98877	730.04126	114.39307	0.00000	0.00000	0.00000	-3413.18896	725.65143	115.50742	-3404.60815	678.56189	119.49306	-3330.90283	508.36401	139.25797	-3353.65405	492.38370	270.07761	-3219.84302	487.94598	127.30587	-3189.90405	458.78098	120.51129	0.00000	0.00000	0.00000	-3221.65601	417.87305	114.21201	-2985.00806	253.87856	158.39659	-3009.09619	242.21776	238.93465	-2937.41943	309.32654	201.81815	-2974.61279	103.03608	252.76591	-3005.75342	71.23945	221.83463	-2960.21606	87.76006	148.93011
924	7.69167	-3304.06445	1058.45007	369.81918	-3486.19751	1023.03296	431.09473	0.00000	0.00000	0.00000	-3483.89917	701.43573	474.60522	-3526.47363	763.63727	479.66312	0.00000	0.00000	0.00000	-3572.77197	547.02802	426.17233	-3561.21069	542.80432	300.53000	-3524.81592	444.77115	447.65039	-3530.32788	397.00015	453.01651	-3584.89819	444.32327	434.86584	-3580.30908	397.19785	440.18967	-3544.93994	105.70310	404.07129	-3550.03320	112.45585	325.57474	-3476.23438	80.61141	371.56744	-3679.18555	51.96671	425.06857	-3723.35474	85.89912	354.63098	-3690.86377	53.41610	314.80362	0.00000	0.00000	0.00000	-3482.54053	1016.75293	176.60008	-3363.34790	730.69861	114.50012	0.00000	0.00000	0.00000	-3428.75171	727.63470	115.06564	-3421.02319	680.29407	118.78344	-3351.88696	508.69861	138.32449	-3376.29492	493.96667	269.38922	-3242.68384	489.08057	126.63588	-3210.48193	460.77283	119.65097	0.00000	0.00000	0.00000	-3243.54736	418.92197	113.61353	-3003.35742	259.47015	158.10980	-3028.10278	246.69058	238.40419	-2959.24951	316.51627	202.97548	-2988.78076	107.83978	252.39998	-3015.76416	70.74534	218.95335	-2969.83301	93.61634	150.16005
